<svg xmlns="http://www.w3.org/2000/svg" viewBox="0 0 72 96" width="72" height="96">
  <defs>
    <filter id="grain"><feTurbulence baseFrequency="0.9" numOctaves="2" seed="94"/><feColorMatrix type="saturate" values="0"/><feComponentTransfer><feFuncA type="table" tableValues="0 0.12"/></feComponentTransfer></filter>
    <radialGradient id="glow" cx="50%" cy="42%" r="58%"><stop offset="0" stop-color="hsl(265 42% 58%)" stop-opacity="0.42"/><stop offset="1" stop-color="#050506" stop-opacity="0"/></radialGradient>
  </defs>
  <rect width="72" height="96" fill="none"/>
  <rect x="2" y="2" width="68" height="92" rx="8" fill="url(#glow)" opacity="0.55"/>

  <ellipse cx="36" cy="86" rx="21" ry="5" fill="#000" opacity="0.45"/>
  <path d="M22 38 Q36 14 50 38 L55 78 Q36 91 17 78 Z" fill="hsl(233 36% 36%)" opacity="0.9" stroke="#d8cfb8" stroke-opacity="0.18" stroke-width="2"/>
  <circle cx="29" cy="38" r="3" fill="#d8cfb8"/><circle cx="43" cy="38" r="3" fill="#d8cfb8"/>
  <path d="M25 55 Q36 63 47 55" stroke="#111" stroke-width="3" fill="none"/>
  <path d="M17 48 L6 64 M55 48 L66 64" stroke="hsl(233 36% 36%)" stroke-width="7" stroke-linecap="round"/>
  <path d="M27 78 L24 93 M45 78 L48 93" stroke="#1a1713" stroke-width="5"/>
  <text x="36" y="92" text-anchor="middle" font-family="serif" font-size="5" fill="#d8cfb8" opacity="0.6">paperwalker</text>

  <rect x="2" y="2" width="68" height="92" rx="8" fill="#000" filter="url(#grain)" opacity="0.45"/>
</svg>
