<svg xmlns="http://www.w3.org/2000/svg" viewBox="0 0 64 88" width="64" height="88">
  <ellipse cx="32" cy="19" rx="11" ry="12" fill="#b9a78c"/>
  <path d="M21 14 Q24 5 32 5 Q40 5 43 14 L43 17 Q38 12 32 12 Q26 12 21 17 Z" fill="#5c584e"/>
  <path d="M26 27 Q32 31 38 27 L37 32 Q32 35 27 32 Z" fill="#8d8470"/>
  <circle cx="27.5" cy="19" r="1.3" fill="#2a2622"/>
  <circle cx="36.5" cy="19" r="1.3" fill="#2a2622"/>
  <path d="M24 22 Q27 24 30 22 M34 22 Q37 24 40 22" stroke="#9c8b72" stroke-width="0.8" fill="none"/>
  <path d="M19 34 Q32 29 45 34 L47 64 Q32 69 17 64 Z" fill="#42403a"/>
  <path d="M24 38 L40 38 L42 62 L22 62 Z" fill="#615c50"/>
  <path d="M44 40 L56 30" stroke="#6a5638" stroke-width="2.5"/>
  <circle cx="56" cy="29" r="2.5" fill="#3a2e1e"/>
  <path d="M56 26 Q57 22 55 19" stroke="#888" stroke-width="1" fill="none" opacity="0.6"/>
  <path d="M22 64 L30 64 L29 84 L22 84 Z" fill="#2b2a26"/>
  <path d="M34 64 L42 64 L42 84 L35 84 Z" fill="#2b2a26"/>
  <rect x="21" y="83" width="9" height="5" rx="1.5" fill="#17181a"/>
  <rect x="34" y="83" width="9" height="5" rx="1.5" fill="#17181a"/>
</svg>
