<svg xmlns="http://www.w3.org/2000/svg" viewBox="0 0 64 88" width="64" height="88">
  <ellipse cx="32" cy="20" rx="11" ry="12" fill="#c4b29a"/>
  <path d="M21 16 Q22 6 32 6 Q42 6 43 16 L43 20 Q40 14 32 14 Q24 14 21 20 Z" fill="#1c1e22"/>
  <path d="M20 34 Q32 30 44 34 L46 62 Q32 66 18 62 Z" fill="#3d4a44"/>
  <path d="M30 34 L34 34 L33 60 L31 60 Z" fill="#2c3631"/>
  <path d="M20 34 L26 32 L24 56 L18 58 Z" fill="#46554e"/>
  <path d="M44 34 L38 32 L40 56 L46 58 Z" fill="#46554e"/>
  <path d="M22 35 L42 51 L42 57 L22 41 Z" fill="#6b5a40" opacity="0.9"/>
  <rect x="38" y="50" width="10" height="12" rx="2" fill="#4e4030"/>
  <path d="M22 62 L30 62 L29 84 L22 84 Z" fill="#23262b"/>
  <path d="M34 62 L42 62 L42 84 L35 84 Z" fill="#23262b"/>
  <rect x="21" y="83" width="9" height="5" rx="1.5" fill="#15171a"/>
  <rect x="34" y="83" width="9" height="5" rx="1.5" fill="#15171a"/>
  <circle cx="28" cy="20" r="1.4" fill="#2a2622"/>
  <circle cx="36" cy="20" r="1.4" fill="#2a2622"/>
  <path d="M30 27 Q32 28 34 27" stroke="#8a7560" stroke-width="1" fill="none"/>
</svg>
