<svg xmlns="http://www.w3.org/2000/svg" viewBox="0 0 64 88" width="64" height="88">
  <ellipse cx="33" cy="20" rx="10" ry="12" fill="#c4b29a"/>
  <path d="M24 18 Q24 6 34 6 Q43 7 43 18 L43 24 Q41 12 30 14 L24 22 Z" fill="#1c1e22"/>
  <circle cx="39" cy="20" r="1.4" fill="#2a2622"/>
  <path d="M22 34 Q32 30 42 34 L44 62 Q31 66 20 62 Z" fill="#3d4a44"/>
  <path d="M24 36 L40 36 L41 42 L23 42 Z" fill="#6b5a40" opacity="0.85"/>
  <rect x="34" y="48" width="11" height="13" rx="2" fill="#4e4030"/>
  <path d="M24 62 L32 62 L30 84 L23 84 Z" fill="#23262b"/>
  <path d="M33 62 L40 62 L40 84 L33 84 Z" fill="#1b1d21"/>
  <rect x="22" y="83" width="10" height="5" rx="1.5" fill="#15171a"/>
  <rect x="32" y="83" width="10" height="5" rx="1.5" fill="#101214"/>
</svg>
