<svg xmlns="http://www.w3.org/2000/svg" viewBox="0 0 80 80" width="80" height="80">
  <defs>
    <filter id="grain"><feTurbulence baseFrequency="0.9" numOctaves="2" seed="20"/><feColorMatrix type="saturate" values="0"/><feComponentTransfer><feFuncA type="table" tableValues="0 0.12"/></feComponentTransfer></filter>
    <radialGradient id="glow" cx="50%" cy="42%" r="58%"><stop offset="0" stop-color="hsl(164 42% 58%)" stop-opacity="0.42"/><stop offset="1" stop-color="#050506" stop-opacity="0"/></radialGradient>
  </defs>
  <rect width="80" height="80" fill="none"/>
  <rect x="2" y="2" width="76" height="76" rx="8" fill="url(#glow)" opacity="0.55"/>
<path d="M18 54 Q19 30 39 26 Q60 27 63 53 L59 64 H22Z" fill="#343339" stroke="#d8cfb8" stroke-width="2"/><path d="M24 31 L18 18 L34 27 M56 31 L62 18 L46 27" fill="#343339" stroke="#d8cfb8" stroke-width="2"/><circle cx="33" cy="42" r="3" fill="#8e2a35"/><circle cx="49" cy="42" r="3" fill="#8e2a35"/><path d="M34 53 Q41 59 48 53" stroke="#101114" stroke-width="4" fill="none"/><path d="M27 64 V72 M54 64 V72" stroke="#1b1c20" stroke-width="5"/><text x="40" y="75" text-anchor="middle" font-family="serif" font-size="6" fill="#d8cfb8" opacity="0.6">stonebeast</text>
  <rect x="2" y="2" width="76" height="76" rx="8" fill="#000" filter="url(#grain)" opacity="0.45"/>
</svg>
